/* XPM */
static char *result[] = {
/* columns rows colors chars-per-pixel */
"32 32 6 1 ",
"  c #181425",
". c #262B44",
"X c #3A4466",
"o c #5A6988",
"O c white",
"+ c None",
/* pixels */
"++++++++++++++++++++++++++++++++",
"++++++++++++++++++++++++++++++++",
"++++++++++++++++++++++++++++++++",
"++++++++++++++++++++++++++++++++",
"++++++++++++++++++++++++++++++++",
"+++++++++++++o  ooo+++++++++++++",
"++++++++++++oooo  XX++++++++++++",
"++++++++++++oo  ..XX++++++++++++",
"++++++++OO++oX..  XX+OO+++++++++",
"+++++++OOO++XX  ..X.++OO++++++++",
"++++++OOO+++oX..  X.++OO++++++++",
"++++++OO++++XX  ..X.+++OO+++++++",
"++++++O+++++XX..  ..+++OO+++++++",
"++++++O++++++XX .X.+++++O+++++++",
"++++++O++++++XX. X.+++++++++++++",
"+++++++++++++oX ...+++++++++++++",
"+++++++++++++oX. ..+++++++++++++",
"+++++++++++++oX .. +++++++++++++",
"++++++++++++++.. .++++++++++++++",
"++++++++++++++..  ++++++++++++++",
"+++++++++++++XooX. +++++++++++++",
"+++++++++++++.X... +++++++++++++",
"++++++++++++++..  ++++++++++++++",
"++++++++++++++++++++++++++++++++",
"++++++++++++++++++++++++++++++++",
"++++++++++++++++++++++++++++++++",
"++++++++++++++++++++++++++++++++",
"++++++++++++++++++++++++++++++++",
"++++++++++++++++++++++++++++++++",
"++++++++++++++++++++++++++++++++",
"++++++++++++++++++++++++++++++++",
"++++++++++++++++++++++++++++++++"
};
