/* XPM */
static char *_40da7f6028245cd983c19f650748130cyJv0XfeBo3IJpi3[] = {
/* columns rows colors chars-per-pixel */
"32 32 7 1 ",
"  c None",
". c #D87644",
"X c #5A6988",
"o c #181425",
"O c white",
"+ c #3A4466",
"@ c #262B44",
/* pixels */
"                                ",
"                                ",
"                                ",
"                                ",
"                                ",
"             XooXXX             ",
"           OXXXXoo++O           ",
"          OOXXoo@@++OO          ",
"         O  X+@@oo++  O         ",
"            ++oo@@+@            ",
"            X+@@oo+@            ",
"            ++oo@@+@            ",
"            ++@@oo@@            ",
"             ++o@+@             ",
"             ++@o+@             ",
"             X+o@@@             ",
"             X+@o@@             ",
"             X+o@@o             ",
"              @@o@.             ",
"             .@@oo.             ",
"             +XX+@o             ",
"             @+@@@o             ",
"              @@oo              ",
"                                ",
"                                ",
"                                ",
"                                ",
"                                ",
"                                ",
"                                ",
"                                ",
"                                "
};
