/* XPM */
static char *ac3719a19dff45b7d7234b1593c190160zVzohWtyq3WjnBT[] = {
/* columns rows colors chars-per-pixel */
"32 32 7 1 ",
"  c None",
". c #D87644",
"X c #5A6988",
"o c #181425",
"O c #3A4466",
"+ c #262B44",
"@ c white",
/* pixels */
"                                ",
"                                ",
"                                ",
"                                ",
"                                ",
"             XooXXX             ",
"            XXXXooOO            ",
"            XXoo++OO            ",
"            XO++ooOO            ",
"            OOoo++O+            ",
"            XO++ooO+            ",
"            OOoo++O+            ",
"            OO++oo++            ",
"             OOo+O+             ",
"             OO+oO+             ",
"             XOo+++             ",
"             XO+o++             ",
"             XOo++o             ",
"              ++o+.             ",
"             .++oo.             ",
"             OXXO+o             ",
"             +O+++o             ",
"              ++oo              ",
"                                ",
"                                ",
"                                ",
"                                ",
"                                ",
"                                ",
"                                ",
"                                ",
"                                "
};
