/* XPM */
static char *result[] = {
/* columns rows colors chars-per-pixel */
"32 32 5 1 ",
"  c #262B44",
". c #3A4466",
"X c #5A6988",
"o c #8B9BB4",
"O c None",
/* pixels */
"OOOOOOOOOOOOOOOOOOOOOOOOOOOOOOOO",
"OOOOOOOOOOOOOOOOOOOOOOOOOOOOOOOO",
"OOOOOOOOOOOOOOOOOOOOOOOOOOOOOOOO",
"OOOOOOOOOOOOOOOOOOOOOOOOOOOOOOOO",
"OOOOOOOOOOOOOOOOOOOOOOOOOOOOOOOO",
"OOOOOOOOOOOOOOOOOOOOOOOOOOOOOOOO",
"OOOOOOOOOOOOOOOOOOOOOOOOOOOOOOOO",
"OOOOOOOOOOOOOOOOOOOOOOOOOOOOOOOO",
"OOOOOOOOOOOOOOOOOOOOOOOOOOOOOOOO",
"OOOOOOOOOOOXOOXOOXOOXOOOOOOOOOOO",
"OOOOOOOOXOO .O .. OX OOXOOOOOOOO",
"OOOOOOOO .O  .    .  OX OOOOOOOO",
"OOOOOOoO  .    ..    .  OoOOOOOO",
"OOOOOO.X    OOOX.OOO    .oOOOOOO",
"OOOOOOX.  OOOOOX.OOOOO  o.OOOOOO",
"OOOOOOX.oOOOOXX....OOOOo. OOOOOO",
"OOOOOOXX.XOoO......OoOoo. OOOOOO",
"OOOOOOXX..XoX  oX  o.X..  OOOOOO",
"OOOOOOOXX....XX..XX....  OOOOOOO",
"OOOOOOOOX.....    ....  OOOOOOOO",
"OOOOOOOOOX... XX.      OOOOOOOOO",
"OOOOOOOOOOOOO .    OOOOOOOOOOOOO",
"OOOOOOOOOOOOOO    OOOOOOOOOOOOOO",
"OOOOOOOOOOOOOOOOOOOOOOOOOOOOOOOO",
"OOOOOOOOOOOOOOOOOOOOOOOOOOOOOOOO",
"OOOOOOOOOOOOOOOOOOOOOOOOOOOOOOOO",
"OOOOOOOOOOOOOOOOOOOOOOOOOOOOOOOO",
"OOOOOOOOOOOOOOOOOOOOOOOOOOOOOOOO",
"OOOOOOOOOOOOOOOOOOOOOOOOOOOOOOOO",
"OOOOOOOOOOOOOOOOOOOOOOOOOOOOOOOO",
"OOOOOOOOOOOOOOOOOOOOOOOOOOOOOOOO",
"OOOOOOOOOOOOOOOOOOOOOOOOOOOOOOOO"
};
