/* XPM */
static char *_8d8e552375a4e8a8dd031416caad474oYdamRn5wx9nRWnV[] = {
/* columns rows colors chars-per-pixel */
"64 64 201 2 ",
"   c #000000",
".  c #14100F",
"X  c #19120E",
"o  c #161311",
"O  c #1B1412",
"+  c #1E1815",
"@  c #221713",
"#  c #241A15",
"$  c #2A1C16",
"%  c #251C19",
"&  c #2B1E19",
"*  c #321D16",
"=  c #311F1A",
"-  c #2D211B",
";  c #302017",
":  c #34231D",
">  c #3A251D",
",  c #37281F",
"<  c #3C291E",
"1  c #1F1B23",
"2  c #251E20",
"3  c #2D2428",
"4  c #342621",
"5  c #3A2721",
"6  c #362922",
"7  c #3C2A23",
"8  c #35292B",
"9  c #3E2D29",
"0  c #3F3026",
"q  c #3E312C",
"w  c #3F2F32",
"e  c #422A1F",
"r  c #492B1F",
"t  c #40231C",
"y  c #412720",
"u  c #432C23",
"i  c #4A2E24",
"p  c #432E29",
"a  c #492F28",
"s  c #443126",
"d  c #4B3226",
"f  c #45322A",
"g  c #4C332A",
"h  c #4E392C",
"j  c #533426",
"k  c #5B3426",
"l  c #53352B",
"z  c #5A362B",
"x  c #543A2D",
"c  c #5A3B2D",
"v  c #423231",
"b  c #4B3533",
"n  c #4C3A33",
"m  c #4C3B3A",
"M  c #513731",
"N  c #543B32",
"B  c #5B3D32",
"V  c #543B3B",
"C  c #5D3D3C",
"Z  c #613827",
"A  c #623C2D",
"S  c #693E2F",
"D  c #623D33",
"F  c #6B3E34",
"G  c #643F3A",
"H  c #5D402F",
"J  c #5D4134",
"K  c #56423C",
"L  c #5B423B",
"P  c #5C493F",
"I  c #64412E",
"U  c #6C412C",
"Y  c #644334",
"T  c #6B4334",
"R  c #6C4937",
"E  c #64443A",
"W  c #6B463B",
"Q  c #674A3E",
"!  c #6C493C",
"~  c #644934",
"^  c #734439",
"/  c #734B3C",
"(  c #7B4C3C",
")  c #774737",
"_  c #6F503D",
"`  c #77513E",
"'  c #534444",
"]  c #5A4745",
"[  c #554945",
"{  c #5C4A44",
"}  c #594D4C",
"|  c #55564D",
" . c #5D5B54",
".. c #624542",
"X. c #694644",
"o. c #644B44",
"O. c #6B4D44",
"+. c #644C4A",
"@. c #6B4E49",
"#. c #744D43",
"$. c #704F49",
"%. c #7C4F48",
"&. c #7E4F42",
"*. c #6A5146",
"=. c #63524C",
"-. c #6B534C",
";. c #715246",
":. c #7A5344",
">. c #73544C",
",. c #7C544A",
"<. c #735A4E",
"1. c #7C5B4D",
"2. c #665552",
"3. c #675B54",
"4. c #6C5A52",
"5. c #6B5758",
"6. c #6E5D59",
"7. c #625D59",
"8. c #755451",
"9. c #745B53",
"0. c #7A5D54",
"q. c #7A5E5A",
"w. c #6E625C",
"e. c #6D6157",
"r. c #746055",
"t. c #74645C",
"y. c #7B645C",
"u. c #7B6A5F",
"i. c #7C6056",
"p. c #7B6561",
"a. c #756A65",
"s. c #7D6B63",
"d. c #766E68",
"f. c #7D6E69",
"g. c #7D7166",
"h. c #7D726B",
"j. c #824A33",
"k. c #845648",
"l. c #8E5548",
"z. c #82584B",
"x. c #8B5D4C",
"c. c #925B4A",
"v. c #835E52",
"b. c #895E52",
"n. c #846255",
"m. c #8D6155",
"M. c #82635C",
"N. c #886258",
"B. c #8B695F",
"V. c #82695F",
"C. c #966655",
"Z. c #966759",
"A. c #816760",
"S. c #826C65",
"D. c #896E64",
"F. c #846F69",
"G. c #936C62",
"H. c #8D7267",
"J. c #84736B",
"K. c #8C756D",
"L. c #827367",
"P. c #9F7665",
"I. c #91766D",
"U. c #927B6E",
"Y. c #9C796A",
"T. c #8A7571",
"R. c #867972",
"E. c #8C7B73",
"W. c #877A78",
"Q. c #8B7E7A",
"!. c #857772",
"~. c #947D74",
"^. c #A07B6E",
"/. c #A27D72",
"(. c #8F8077",
"). c #8D8079",
"_. c #93827C",
"`. c #9C857D",
"'. c #99877B",
"]. c #AF897E",
"[. c #A68377",
"{. c #958684",
"}. c #9B8782",
"|. c #9B8983",
" X c #9D8E8A",
".X c #A28D85",
"XX c #A08E8A",
"oX c #A88C86",
"OX c #A59187",
"+X c #A89187",
"@X c #A2908A",
"#X c #AB958C",
"$X c #A79691",
"%X c #A89996",
"&X c #A79993",
"*X c #B09F9A",
"=X c #BEA192",
"-X c #AFA4A1",
";X c #BAA9A3",
":X c #C2A9A3",
">X c #C8B4AD",
/* pixels */
"j d N d.E./ d y                 , y i t._.h.e u                 5 u / :.o.T j u                 f : Y T /.j 7 d                 ",
"u s J g..X[ u l                 $ e Y 4.d.t.u l                 7 < T R >.j j l                 g : i b./.i d j                 ",
"u e c '.).-.5 7                 < : :..XR.3.d u                 u , c O.$.A u u                 u - l ^.@.i * i                 ",
"j j z #XQ.' : d                 > , d |.:Xs.u h                 : < < j n.c.p l                 d , j c.I.( : >                 ",
"d x B ).F.p.# :                 7 d B a.E.[.B Y                 @ $ j 4.v.c 5 Y                 , c g C./.,.= >                 ",
"g s x  .).2.7 ,                 u u C }.J.=.g :                 : , c M Y g d h                 s l ^ >.k.( k k                 ",
"s c g R.d.p.u u                 : : g _._.3.5 -                 u : d B N E B s                 4 5 T b.F x T c                 ",
"l T A H.s.o.g x                 : , c .X#X*.5 7                 u : d L H.g d 7                 j j T G.q.) : 5                 ",
"x R z _.-.Y u x                 d g t.+XU.9.g d                 - @ u { ~.B 7 g                 i g G X.`.F l y                 ",
"S B l s._.D 5 7                 u s J.U.P.X.d d                 : 5 ! O.>.O.u d                 d y D Y.( z u g                 ",
"T i l ~.|.Y : s                 u : t.S.u.d u u                 , , z -.*.y l d                 l 7 ( #.K.j i <                 ",
"l l G T...( g J                 J , E J.XX/ u 7                 d 5 #.T.0.7 < d                 i g W M.G.&.i j                 ",
"g a G XXt.N J Y                 d 7 9.|.@X9.7 d                 : , D J.d.g x -                 j g Y O.q.S u u                 ",
"d g B A.1.~ f E                 : 5 ~..Xt.y < d                 i i #.y.f.>.x 5                 u - :.m.K.l y i                 ",
"u < 7 z 0.R u x                 5 ; s.p.] i & y                 , l W &Xg.D d x                 l y F ].0.> < l                 ",
"7 B j I u :.7 s                 < ; d U.x.i & ;                 l - T *X@X< 5 f                 ; y F #.E i ! l                 ",
"5 u W _.Y.{ d ~                 u $ [ J.9.i < >                 7 u A %X`.D.u l                 u u ^ ,.D W u y                 ",
"i 7 Y ~.#X<.s d                 ; ; w.h.i e u d                 : d ..D.4.3.B g                 z : g >.A.J > #                 ",
"u y f :.v.l B d                 $ $ a.| d H < :                 u < j h.E.=.x s                 N 9 Y 0.F.l : 7                 ",
"d Y W C.k.T u u                 , # v P *.D - &                 g & - g.$Xs.- f                 6 y l b.u u d 5                 ",
"d g k.`.O.Y f 6                 g 6 p 9.0.c 7 x                 - i A J.J.9.u h                 y < :.B.B c : y                 ",
",.Y T >.K.B 5 :                 , 5 w E ;.u : d                 - 7 l.'.[ C < J                 i g x 0.1.u 6 5                 ",
"x s 7 E K.: 5 7                 # ; f.*.J u < 7                 u & < =. X@.; &                 z y y Z.` s : u                 ",
"x d g B J l 6 &                 - - #.v.z d u y                 u 7 : V a.s.: :                 f u c / m.c u 6                 ",
": u g l B d J 6                 u 7 u y.Y c - ,                 > 5 p a.+.b u B                 5 6 g >./ W & 5                 ",
": d : B l g & f                 u 5 : / S.l $ ,                 , % i t.J.o.5 s                 5 6 x s.u l l ,                 ",
"u # - f {.7 8 6                 : $ ] 4.B 7 : 7                 & : 6 4 6.4.# o                 : # d g J N - f                 ",
"4 & o g C B p 9                 @ $ a.h.B 6 5 s                 & & 5 N 2...+ #                 $ # $ N F.u # -                 ",
"- : u 7 W g N f                 ; , g B E T u :                 : # 7 F.s.1 + u                 < @ - c l 7 + -                 ",
"o , u o.q N 7 6                 : 5 : B s Y 7 :                 & 5 7 x V 8 # -                 X $ : 7 n 3 6 f                 ",
": # - N x B - 6                 y 4 f ` B.5 : &                 u - l & f u - o                 $ $ , d q v 6 7                 ",
"u & & 7 { 7 - u                 7 7 h U.J - O 7                 % ; # c c 7 % o                 & o u N V v f -                 ",
"y u u 7 l N 4 5                 : g x d N 5 : %                 : % 5 $.A.: . 6                 & # & z.+.m % f                 ",
"c l u 5 ! B f -                 O u d u : f % %                 - & : x n 8 + -                 & + 6 p _.b # -                 ",
"; f 5 N g L : f                 # @ 7 ] b 7 & 7                 : % B h f 2 - 6                 % & 5 a.7.f % #                 ",
": 6 x L 7 7 : :                 d : h -.B d 7 g                 , - - 7 M 9 o #                 6 & i ' 9 9 g 7                 ",
"h 6 f <.i.# - u                 7 g % Y L B 7 l                 d & # c E g . &                 : 5 p !.f M 5 9                 ",
"x d f g c s : &                 p # i B D u ; d                 - & : g f g & 5                 6 % y u. .7 # O                 ",
"5 s E d x u 7 :                 o - c D.c l g :                 : - l C g h 6 5                 : : B -.J.b # @                 ",
": g 7 d 7 z 5 $                 : : D B B T 5 4                 j : 7 h Q 5 : $                 $ 7 i r.y.p , 5                 ",
"i & u g ;.d & :                 : g g ;.K.d & f                 y $ 7 N y.d # :                 ; $ < ~.*.7 : ;                 ",
"; : , x x d e :                 5 9 Y ;.Y l 5 f                 : ; i 9.x : $ #                 : & r V 4.G 7 -                 ",
"d $ ; B N : : l                 f 7 :.J B J J f                 5 # J o.Y d ; :                 > < u Y V C u :                 ",
"$ s - J Q e : y                 f f x 1.E ! 9 g                 > & : =.E.h - &                 , # G 9.+.7 , <                 ",
"u u z d I Y 7 5                 7 - c :.Y.x u 6                 j , x P =.x 5 ,                 ; # i J.f.: . :                 ",
"# , e _ h ~ z 5                 5 $ J H.k.! g x                 # 7 g C 7 u , 7                 7 & x V 6.g @ $                 ",
", 7 g ~ 9.x : x                 u : g 4.I.R f x                 u $ g E.9.x : x                 6 : T t.b M : ;                 ",
"z i i :.V.u : u                 = e T A j.Z.y d                 l $ u OXy.j : s                 : & b a.' 2.6 7                 ",
"T c ) ~.c d : i                 u d D #.I ) i D                 u < n.D.s.c : :                 p & h 3.W.f - 6                 ",
"z i k z z A i :                 Y y T D.G.g l A                 : , A #.y.i : :                 u l g ] Q.L 4 5                 ",
"Y u u j #.S > t                 , < x I.N.#.: 9                 7 7 W E.M.d 5 -                 : : C {.{.u 9 u                 ",
"d u s M.G.k * k                 : > ] N *./ : &                 - , J G.K.d u 7                 : u u _.h.u ; h                 ",
"/ x { oXB.i y j                 d u u s.@.d 7 7                 u : l s.K.l 4 7                 d : f @.y.d N 9                 ",
"z l X.#Xr.) j r                 l 6 u E.|.u u x                 u : g J F.T d y                 : 6 o.0.J B 7 s                 ",
"j i 8.y.r.( c e                 , 7 L h.J.u u s                 ; $ l K =.x 7 A                 - 7 x w.K.R s 0                 ",
"l Z B +.E.,.: <                 5 g 8.$.V 5.7 f                 ; 6 J n.B l d z                 7 5 m d.-.T 6 7                 ",
"l I ! _.;Xc @ u                 5 g O.O.9.o.u l                 7 - x x { R u u                 5 5 L g...Y d 7                 ",
"e j %.@X9.u < e                 g u d >X XN 7 B                 : : y <.;.B : ,                 6 7 N 0.B x 6 5                 ",
"k Z D.E.n g d d                 u $ W $X Xu y i                 : 7 J o.Q d : g                 $ 6 N s.V / 5 7                 ",
"Z k C 4.(.E , 7                 5 : ! y.d E = $                 7 f E o.=.B , :                 : 7 N y.K B 7 7                 ",
"U z g e.-XE O -                 i l W @.v.#.i 5                 h 6 L -.' E - 7                 < u l y.S.T 7 l                 ",
"d u x J._.J - h                 g N I -._./ u i                 d 6 $.Q.9.7 x f                 7 7 N @.I.B d u                 ",
"d s 1.=XL.H 7 d                 s 5 c J.J.z d r                 7 4 #._.J u : l                 g 7 L q.p.a 7 7                 ",
"s h ;.`.E.Q s 7                 6 4 c F.R.} > z                 y : O.x.T.p u 6                 d f / G.T.g u $                 "
};
