/* XPM */
static char *_968dc2eb34c4db5ca2c07508e2d34148MDHeRfHnSR4sT6g[] = {
/* columns rows colors chars-per-pixel */
"64 64 80 1 ",
"  c #483D34",
". c #453E39",
"X c #493F39",
"o c #4C4237",
"O c #47423B",
"+ c #4C443C",
"@ c #4D483E",
"# c #51463D",
"$ c #53493E",
"% c #584C3F",
"& c #4E4641",
"* c #4E4842",
"= c #514741",
"- c #544B43",
"; c #594E45",
": c #564E49",
"> c #594F49",
", c #565047",
"< c #5B5146",
"1 c #565149",
"2 c #5A5248",
"3 c #5C5149",
"4 c #5D5248",
"5 c #5E5348",
"6 c #5B554A",
"7 c #5F5449",
"8 c #59504C",
"9 c #5B534C",
"0 c #5D514C",
"q c #5B554D",
"w c #5F544D",
"e c #5F584D",
"r c #5E584E",
"t c #5D5750",
"y c #5F5951",
"u c #615246",
"i c #605449",
"p c #60554B",
"a c #60554C",
"s c #64574D",
"d c #69574E",
"f c #61584D",
"g c #63594F",
"h c #635B4F",
"j c #65594E",
"k c #695C4F",
"l c #625752",
"z c #655751",
"x c #675B50",
"c c #645852",
"v c #655B52",
"b c #645C51",
"n c #665D50",
"m c #655A55",
"M c #675E56",
"N c #695E53",
"B c #665F58",
"V c #6A5F59",
"C c #715F53",
"Z c #676156",
"A c #6C6155",
"S c #666058",
"D c #6D6359",
"F c #6F695E",
"G c #726456",
"H c #736857",
"J c #70645B",
"K c #72665B",
"L c #74695D",
"P c #796A5D",
"I c #6D6660",
"U c #716760",
"Y c #756B61",
"T c #7A6E62",
"R c #7C7165",
"E c #827466",
"W c #83756A",
"Q c #86786A",
"! c #887B6C",
"~ c #857A71",
/* pixels */
"a<0w2>-3;2>w2a0a;-=2-;;3<7cgcggNagna;003>zNJNAcDja>>29--#33j-->>",
">;3;->>;=&>l2->w=.2w<6-66ggncwgw;3ac33>7p<-*+@3;<p<q3;2w>2=-X+>;",
"32-;2=1<>-0002t2-==36-rrwwMg:wc2c302w;c3-#;-+-;-02<<3;3->;===>3<",
"<-#=<-23-00c;30wO@20->-@*&--26q0;7g-<73<;@+-O-->w-g<;;773---#233",
"-;;-<cs<;wm3322w=@-<-O;::-922w-waa;----3@O@O@9c0>32p;;j3=+-@+--2",
"--+;>;a3=+=;32=w:$$;---9=-2-@=-w>0022;-@#@=-q2w3-2;c#;j@#+#=:=+#",
"==;33-#--+#-;;---3p33-*::>2===2;0t;2--1-+*==,==#-#+3;+#+++-&-===",
"#+-+#;#<;$<7$nac-#;7@;-:112w19w>3:2l2-=*@--w*=2>-=#=$##=@==--;=>",
"#=#-;-;;;;7NcDcAA33w<=:t9297ctc9:=q+==11-=29-&02-<-+++@;#++==+@-",
"#-#;=;=--agMcnngA2l6-;:w-0-2=2--:::1&:9**lqc==aagg<-+-#@<<;#@@--",
"3$$=j3;3DcADDANNglcw2<22wO-&O&9*==>-+O&=qtw-:3-3w--,$=-,<<;----#",
"+#<AApNnnnNAANnDg0>0>-c30O:&&=@==:=O...+nyc-w32ng<<r#-33<=2#1-;3",
"--=AANpggAjDDDnnDcnm9-92-=@+@=-:&==O=O=-nB9ql62D;--##3;;<;#-w20#",
"--;NjApccagMNagJMwcmq2:>==2=-==9:==9c-w2:ylm<-nMD<-3#72-a3wjc;3-",
";<kNgg;gkDJJNj<Dw3cg1w9==w-==-O@:>--cwm0:@=q:-cZZn7##7wcA3jANc-<",
"pcDJ7;;<pNJLcNkn<77<-=-@;-22@.---w2t1;2222DDcg2naD-2---<apgNNs;;",
"c3aN-;$<gNJDagMMc7-1=@-O-::=*O-wcm>-ccMg7gncnN3JN3-<73<;<D7333=3",
"7gp<---#NNknccDD>2-=@--12w:**.&ytym2cSDIDgwADADDapnAwgw<cDN;;$=<",
"wgp;<%37njZADJNAZ2-#==2*2-=@=@+2qw2*wMnw7-caMAJDANpNJAMnNGaa2##7",
"73p<;-3jgpcNJLYYAc2#@===<-w9-@+===>-AYDww1=-aDTLDNnDJAAMM3ca#+-a",
"3;pa;7-7~LJJRTLYFcgO:-=2-gtm9=+=wD-cJFDM@-=22DADNjpgpw23+-<-2-;<",
"2c3gAaaYWRATTRLLcMM*O99t&=:q:*=gacM3SqcnJ-+#2AAjATLADAc2;;-ww<-=",
"-7pcAAjJTTJTTLTLNDU@=:2==-yyt&rwmFD-,rnAnn@+waDAJJJAADDc;;;o=33=",
"<3gaaALPTTLJJTRTj7gn,219*=cm=@-6awNZwaAnnM<3aAJDJTJAcAagggccr-3;",
"<nc<cLTLLRLYYJJNj2wDDt9:*&::=2<2wrngg3gnngAJLRLLDLLZAA<<ggAMgr@<",
";gagncgccDnwMNnAn2ac2>>=&-:*9-2Ma;;2g-77nnALTJJr--gAJ32<7n;7a<=@",
"MjAjNJc3YDJclcMgZcMMat-9-;w-aw2c7;-cgw7wnZcaag6rDDgn3Z<<nn;-73-w",
"NNJLYJJDJRL<p3jgNkNN-:w2#72=2;-32wwgg2wZLDa<a3-wgDnnj3jncc3#a;jn",
"NNJLYPLDNJUajcDjjjNj7->9@w2-9292-27rn76nZF<7g7-agDDjc7w3gg;ajpj;",
"3NNLLPJkNDw27wAL3c3a@=2@.--t:9911g7rr#-rnFFJMr7<gM7NcjNsnncAc3-;",
"a;pNNLNcDc=#-<$s-3w:-9m0wn:=-=---ap<7<-=ZFnAM-o,<-cFDNM3a7NNM3#-",
"2sj<33JaN3-7a2--=22-=2VlDrwa2McMwNZn7<33TAcDN=wg--rYn7g;2aAJn<;=",
"jjs7-aa<cajcnn;--<>:O>w;;ntwncnZ3gNksNNAJnw7j=3apcgrNa2;37jwcaja",
"jAaNGNA3ApkNAca-2a0=22-c>qq2cacAgca7JANGJDa7c7;caDsgAN--2rjJn<cp",
"NANaDNcNMncN;g<-=-w2-222-=n2wccc33gjTJGNJNa3cj3M3c-3g;+-;cNGcaaN",
"DcNNNaNAnDJAJna;;00DNgcc--6=wMDDjAccELNN7cNgcncNc20cj2gn7jAADgNn",
"AJJjDnNnNnJDANNlwcYVTJYAw2c6ncnALPLNNNGNgAADNA22wcDMDMNg7cNDnaNn",
"AJNNNap3cn7NMJN;0ccTTTTELAgnggnnDJLnjjLcADjupgMcacnMy0g<Dn7ngcc3",
"LYJNDN3ccDnjNJD7wwccPLTTLNNpjwcgDYDccsjDDcpjjcgnMng2727Nnnangnkj",
"AYjDN3jNajgpjDm32w2pNgJA7cw77wMn7DjsdkANja;p32jMMNcw<;nncnjAAkJJ",
"jjAa;7paacnjcnn=-72JALQEWRAG7ycg-%$ccCCNp3;p-ajNMccgw<NNpNAGAGTD",
"nNNcnaNcapNcncNp<<LLJTW!QPLYJ-cn3#;$GPkkkp3;p;<cNNA<<7nnggj7cnAD",
"GJJNpDYNcpcjpAcgskNRDTTJJDDAN<<n33;$NGNNua3ujpuMcAg7jFnn<cgpNDDJ",
"NNNDNDTD2cw0cAM<NGAPJLJRLGAjNk-22ap;cNCdkN;%jnspl372cgZcgpnjNADN",
"cNDNcgFcwwp7njNkGGGGLPJPLLANApAgcAnNPPGCGC;skspG;w7nNNJN37nNNNAD",
"cDVMcDFcww;7ggaNLJjkNjNNjZwgcnAMMNNsGGGCLac;p;3wwDw2awMnn7NcNgcN",
"ccNnnFDV-#-;3p7pNJAppRRp;g3ggcgDncs;c;;ajNsp3g7a-;q-;-23aca3a23g",
"agNncMac==@a<paNkLnnjYRLJAagAngg->;$;;3ccks;3nc7,-7gpZj7<cg3777-",
"wacNc3a#a3Mg333AAp33pNJAJcnapp<3-;-2a;--;;pjppNg-<;gaNDa33nnjpaN",
"pA3a;3;aacccj3NNN3A3sANNAagpa--2aaaaNs---;pcp7p7;n3-cNN7<37ncMcN",
"NNJcp--=c2wcnppjNsk%pNNNNnZp7=7<;;3ac3-;#3ccppa37pp$kDDNjjkAND7<",
"NNAcncpsc==+MD3s;p$pkDcanjNg7+-n-aaaTL--p#Nzs;3jNsppkkNksjAnjnjg",
"77ccp;sp;=2;gcg<g3gpcwMnnjac72-MmBcwp3j<g-7wpmpNgAGAAkks33Dn77gc",
"cnaNj;Nca>w2tMc<ANcpkcMnAgw,=#2gg7NAppApNj3aa<3MM7cNc-<<Njpp;;a3",
"wggAacNMc37<wZ77NnmDNncJarc;<=2MAnAAnNjckujna3DJDNMDM##3jN3cp;gj",
"6ADDkADcwa3McwwDNNANJnDA=<-=7-ZAncNNAnLckZjg3pcDwcgc7;3<aNcna3aj",
"MDDJgkkNVJDNcnnANNADj3#<77-2@ccw-cA;3kHGRJNa3jN3p3an###<3s$Ag;cN",
"T<3sAADDWJYw<-nnNAGAZc77g-37<g2<2-2--skTTY23a3-;7<-=-o+#33$$##nA",
"EDN3NANDDTVw;-<-#p73Aca3t732<#;><www;;<;J<;33;#@-3;=-;-+##3DJNsL",
"EMjVccgjNLJ3l2wj3jpjNgkNgZcggg3pac7-3-;33#2-#+$+#+--Nc-;#%GAJJkE",
"N32cl3j;3JFDc-apkAjZpNAZJgwng7gDNjg2gagacp;--+-;  -3--3<oo$Akpkk",
"c--3N;$=##MM>-<gcpsNj3DJNpNanwgAAa27cwccNgc<;-$=-=#--&--33;-$;3k",
"p-;3;<3-@@=--;=NAjnAngpNaAkn<ccDc7g73ltcMMww>0nw3a02--;3ja+-;o$p",
"pn<<3c-73<=>;aalnJnN<-3jng3Nnggg;ng230lcwccJNcAc3aw033333caj3-p3"
};
