/* XPM */
static char *cbe389c8325d450cb4a2be1a3b1d0026AGYTGHs6e1dGbeq8[] = {
/* columns rows colors chars-per-pixel */
"64 64 85 1 ",
"  c #1F1716",
". c #211917",
"X c #251D1C",
"o c #2A1E1D",
"O c #301F1D",
"+ c #27201E",
"@ c #2C211E",
"# c #30231F",
"$ c #261F20",
"% c #2B1F20",
"& c #272021",
"* c #2D2321",
"= c #332523",
"- c #392725",
"; c #352925",
": c #3A2A27",
"> c #362B28",
", c #3C2C2A",
"< c #3E312C",
"1 c #432C27",
"2 c #422E2B",
"3 c #492E2C",
"4 c #44312D",
"5 c #4A332E",
"6 c #47382F",
"7 c #50362F",
"8 c #453431",
"9 c #4C3531",
"0 c #463832",
"q c #4A3932",
"w c #4D3833",
"e c #4C3933",
"r c #4A3834",
"t c #4A3936",
"y c #4D3834",
"u c #4F3C35",
"i c #4D3C36",
"p c #4F3F39",
"a c #513633",
"s c #503733",
"d c #503833",
"f c #533A35",
"g c #533B36",
"h c #513C36",
"j c #563C37",
"k c #593B36",
"l c #503D3A",
"z c #553D39",
"x c #563C38",
"c c #5A3E39",
"v c #583E3A",
"b c #5C3F38",
"n c #4E4037",
"m c #524038",
"M c #564139",
"N c #54413B",
"B c #57423F",
"V c #59403B",
"C c #5B413B",
"Z c #5F423C",
"A c #5C433F",
"S c #5C443C",
"D c #60433C",
"F c #62433D",
"G c #61433E",
"H c #61443C",
"J c #62453E",
"K c #5A4341",
"L c #5D4541",
"P c #5D4940",
"I c #624640",
"U c #634742",
"Y c #654540",
"T c #654841",
"R c #654A44",
"E c #674B44",
"W c #684842",
"Q c #6C4942",
"! c #694A44",
"~ c #6E4B45",
"^ c #684D45",
"/ c #6B4C45",
"( c #6D4D46",
") c #714E48",
"_ c #6B514A",
/* pixels */
"=&====+@*===>;;;;====X+=*;;;,,>@o@==::;;=;:44,,,;=;::::;=*==*+;*",
"*X+@##=;;=@;:+=;++==@+XX+=*=;>>;=;==;4>::,4>4,41>>=;==@==;;;+X**",
"X&*=::4eTVSEV4ZB2,:;=@&*=*=;=;==;=*=:==V//TvuIHZ!fde;;*=@@==***=",
"+X*Bu48t8j8!HZnKMST8X*=;uf0yfe5eee4=:=4_I!HZmDW(~YYTy*;e5<48,>==",
"oXV444,0457DTjxlhjHt#&>8y,8<0yeeesjh:;MSZvxtDb)!Q!TSx=4xfyqyqf<=",
"X=t99,2x8:djf13xvkZ0@@,1;:<,,>4455e4:=8f4f80vjbkjvVv<*:4<;44e24;",
"Xy80f,4yv,,fs2>yjjvy=o4<59e,>1;:1254,=>492>sjsj50e2ffX*:;4t8e58=",
"Xft8555vj5f84,:04558oo82>2<122,,55e5,:>545ebxfvf0sse5.=2,1,4425>",
"X4d2505vs44ff58Zve52=o4,2259vss8f8f9>;:004jbfejfy44<<o=842454:,;",
"Xe,5,8884,1xffhqj,54oo<2,24s8s13,255;-2,25sve1eyf522>=@>4,,11,8=",
"*e:,x84tf42exf8j4322#*0153s958e2e554;=>5esebxf4x4,=-9+*2::4e5,e=",
"X44ed5e8,<<fxf8f4,8;&@8-,-,=:28042j5==;5fsefee0yfe40y+@52;;;1ee:",
"+q4Zvkkfex0vx5fZfey4*;2;=-;==42:0:18;X;efe0xfxffe4,4;+@;,8<555::",
"ovvbDDdjxyxxe>fZ04f8*=,>;14::>=>,2>*>@=;44105000544>=+++=,0404:=",
"X4fjvs4fe44944,84<f:X*:,;<>,40,@;=#==;=,>:::=;>>;=X=**@@@=@+@=@@",
"X==f212,:=>;>,,,>,>=*@=*;;:;:4,=;=#=:,:;;,:==;;=;=X*++.X=;#===@X",
"X+%;+;-*-,:=:;;;;=*=*==XXo;==:;=;;==:::=*@X=*=;==*X=+#=;====#*@X",
"*XX&*XXX;=@*=:,>=Xo*o@==Xo@@o:;;;=,0ST/SvVHZy8,2408f4e04,:;;#+*+",
"<:;+@==14,====:;===;4ee>4084>;*>;*TvTEYe0h9uEZ:=4I<x!VHv1,,44:44",
"f>,,0<,bbv4f08:2S/xDvMI4xZIvZLx*o;05fxf19ss840,;f5efbxj40*=,;>>1",
">,:5:f,5ee>1fx;v/hqses53,504;xt;=:y8ev41kZ8045=:fe4ef54:4#*::*:,",
"8>>4f:,:44,5xS;S08fe4sj0:4<,<,4::+qyyye8jVy54e**4fsefe5>;;;:4>>:",
"0>:,4,:34,;2f5;4<4je5es3,8s4,e4>=#803f044e85>4=;8x44443:,:=,;,41",
"5<;,>:8;,0:,52=144jkks59,sj4,>8;+Xf40yvs9e9,82+*44:<8y,,,*+:>44<",
"20<,>8y:;5;:1;@;t1sbbx9:3s9::5f@;o48fyx591:451&@0,234t5,,+:240,8",
"e4;;441;>,,1::+,fjj5f2,4,s4es222*;28x5vxe25242oo=4244144:::0:;;4",
"2:2;4e:;5,:,,;@;vbkv55::54843823;=8849ee558844=*:,54<8>=+:=;;>10",
",>===11,44,;:=;;vvse128,43,1:,84,=;s,<8ff,>44;@+***=*@;*==;+:+:;",
":>;*=>;*===*@=;>fj3>1,,,34,,:4f=;=>,4,;4<>**==o+=;;X*=++;*XX*=;@",
"+;;*:>;=:,;+#**+8e53;,,4:,,::24;;=;:=+++;=o&=*o**=X+====**o+&*==",
"&+X**;==;=&*@;&=&;4s>e8>2,,:@==;=**:;;=X=*oXo@X***+=:>;;*&o@**X&",
"o*=**===;*==*=*++@+=o=,====@*:==X+====@=;*==**o+>,::>,>,=@;;;&&X",
"X&X=;&+X*+**+o&#+X+*X+==*;&X*;==X+==o====;X+4L4lSIbDHIVDe:<008++",
"X&o&*++&*X*X+=##;=;=+o+==;=oXo,1-:f14e,X=4>mZt>VfjsjZvje,,4Zf4;X",
"o=@tt440q0<018844hZj4>4;@=:oo8ZZEBjvE!f.:;;,f,2fee2ee54:::,05>>X",
"*&4Pu>48eHHbVs555fvqu8xee=*@;B50jV0,yZy-o:15txjfjedxy54xd4,4e4:*",
"*:Z<412:37k514s8eyf44d45f:+o88s4vxf0dV8,Od18Lv5fZvjfje40425e<:y&",
"**y:>:,2>35,4d4fey44>,5se0@*:e:5eet4ef5--ks90jfjffee54445;5;>1<@",
";,y44y<e:e,8:f44404:;2e21,=*>0;=,1;1,:e2-j44e54se4,5:4,821;5444+",
"==68>>18,2:414,,eee:,39334**;<-1:4,,42e2;1;5e4e4e,:34,52>;;44,5;",
"=*8,=><4;;445512444422945:*+,954,2:4111-=>,,145fe1:1e5ee,3;45df;",
"@@4:;:8,==>1,:22:,e1=2ee2>;;;54,,41,,4<;@:4:22441,8445xe:,0,5ef:",
"#=q,,>,,+**;,951,525255848=;=<;;>:;=:::;@;4,4204:4e54ss5-,;1jjV;",
"$@0e4:,::1:=;,1;:859381=8>**=,;:,;,44>y*o:;,151-:=3;:2e24;154se;",
"@:Z44,44,48>;=10,5j523:44,=&;,3,05#;844*X;:,4::8;;;4444:;;>251:;",
"*;8>,:2444<,==;;,,:,,425-:*&=4,32;:;4::*&+=;:;:,=>,;,,,;=&>2:;;;",
";;=:=;,,=+=;;;@oo;=&=-:*=*X@===;==X*;=-=+Xo*o=,*o++oX=-oX=+*=#;;",
"&+*;==:;@*oo=@o@X=ooo=;;#o*=:-==@@+;4eef4fe;.@=oX@+==;:XX*&+@==;",
"+X*===:,*;:=*;=o=,==;;*X=@sejs,+=o;8lM48lVxf=X==;+===;8=;;=;=;;;",
"efpVdvjqM5;,;*;;5f>:80=X8t9j5,8j5=0px440tfjDV0+:,1Mf,8e,24effVZj",
"ssjjfjeej:=1,;*=:;==:,@ xe9ss-5x4o405:5x,4ssd5XX,141;454,;2eesse",
"ejfkee5ee4=-->+;;:=;==#Xf5sf014e,X1455e5:255d4X@,,>*114:;:2,,455",
"fsff50exs0;28*;;2@=;***o4xe04s:f4+98e5j,:5ejjf@;0e81ee,::,4:,::,",
"eeeee009e91:<,==,:=*:*+of9e484,4;o0e,40:5jsxfx=>08,598:314,1:,,4",
"fseffxf9ee1:4>==:=*;:=+*4,5e84:8:.<4,4,=1,jxff=;45e8e3;215105:e9",
"5e5exxbe5e<4;*==:;=:::==4<1<08fq;X<f5<,,21e55f=;42>>4:8>:5ef5409",
"5e9sfve5e49,>;+:=;;;::==ff8j8008=+84,48,8ef45e@*043,>,,;>e5e24e4",
"fxe5xs55f<>52=*=*=:=,>@ohjss4j4q,*,,:5s,,84,e0X*yx>11,21,95355e;",
"xZeese=4,,>4>:;::;;:>*@;jVjs3>t84+:8>f3,402,s5X*855,82244ee0ffe2",
"fe,544>:,t4;4::>,,;;>*=,TDe55e,45#;:<::5ee5454**e42-53,45s455445",
"8431e>,<88:;0:;>4,::;;@:Y52552,ff=@444f5dxj95,&=:4,543ee5e45241,",
"e04404:>,;:>:;**;;=@@.o@44;=445f1=+>yxesfxe44<+&;,524>55ed5es142",
"44,>428,>*=;;*X:1=;@*+X%;922,fsl1@@=4f05fes,8=*&:41ee5esese,,,4,",
":;**::&+++:;*=;:;;=**XX+;,;20e1:====:0fd5fj8:@*X==;,,1,,>;:;=*;;"
};
