/* XPM */
static char *_89972fd4f4d46d7f2b57e69f89ccc2aLEkflW1cmCSd3dHh[] = {
/* columns rows colors chars-per-pixel */
"64 64 188 2 ",
"   c #33271E",
".  c #36291F",
"X  c #392B1F",
"o  c #362921",
"O  c #3C2D24",
"+  c #3E2F28",
"@  c #3E3126",
"#  c #3E3229",
"$  c #412F25",
"%  c #413126",
"&  c #43352B",
"*  c #49372B",
"=  c #46382E",
"-  c #4A3A2E",
";  c #523C2E",
":  c #433731",
">  c #463930",
",  c #4C3D32",
"<  c #4E3F38",
"1  c #523E32",
"2  c #4E4036",
"3  c #4E4138",
"4  c #534235",
"5  c #5A4436",
"6  c #5C4837",
"7  c #544439",
"8  c #5A463A",
"9  c #57483B",
"0  c #5C4A3C",
"q  c #624736",
"w  c #674836",
"e  c #624C3D",
"r  c #6A4E3C",
"t  c #64503F",
"y  c #6B523E",
"u  c #71553E",
"i  c #574640",
"p  c #5D4B41",
"a  c #634E42",
"s  c #694F41",
"d  c #634F48",
"f  c #655143",
"g  c #6B5445",
"h  c #6E5946",
"j  c #65544B",
"k  c #6B5549",
"l  c #6E5A4B",
"z  c #715645",
"x  c #755A45",
"c  c #7D5C46",
"v  c #715749",
"b  c #735C4C",
"n  c #7A5E4C",
"m  c #695750",
"M  c #6C5C53",
"N  c #735E51",
"B  c #7A5E52",
"V  c #7C6247",
"C  c #76614E",
"Z  c #7D614D",
"A  c #766153",
"S  c #7B6352",
"D  c #7D6956",
"F  c #766459",
"G  c #7C655A",
"H  c #7D695B",
"J  c #845C45",
"K  c #83644D",
"L  c #88674B",
"P  c #87694E",
"I  c #88694E",
"U  c #906A4D",
"Y  c #826553",
"T  c #846955",
"R  c #8B6C54",
"E  c #80675A",
"W  c #836C5B",
"Q  c #8A6D5A",
"!  c #916A50",
"~  c #8C7256",
"^  c #87725D",
"/  c #8C725C",
"(  c #937255",
")  c #987455",
"_  c #92745D",
"`  c #99775E",
"'  c #95795D",
"]  c #9B7A5C",
"[  c #A17D5E",
"{  c #886F62",
"}  c #867263",
"|  c #8B7462",
" . c #8E7965",
".. c #83746A",
"X. c #8B7669",
"o. c #8D796C",
"O. c #937662",
"+. c #9B7661",
"@. c #947A65",
"#. c #9B7C64",
"$. c #907768",
"%. c #947C6B",
"&. c #9A7E6B",
"*. c #897970",
"=. c #967F72",
"-. c #A17E64",
";. c #A47E68",
":. c #9D8166",
">. c #96806F",
",. c #9C826C",
"<. c #9F846F",
"1. c #958373",
"2. c #9C8472",
"3. c #9E8672",
"4. c #9E8875",
"5. c #9E8B79",
"6. c #A38266",
"7. c #A38366",
"8. c #AA8566",
"9. c #AA8865",
"0. c #A0846B",
"q. c #A3856C",
"w. c #AA866A",
"e. c #A5896D",
"r. c #AA8B6D",
"t. c #B08C6F",
"y. c #AC906F",
"u. c #B2906F",
"i. c #A28672",
"p. c #A88670",
"a. c #A58A73",
"s. c #A38B76",
"d. c #A68D77",
"f. c #AB8D73",
"g. c #A88E75",
"h. c #A58D7A",
"j. c #AB8F7B",
"k. c #B08E74",
"l. c #AB9077",
"z. c #AE9176",
"x. c #A5917F",
"c. c #AC927A",
"v. c #AC937C",
"b. c #AF987F",
"n. c #B39475",
"m. c #B89775",
"M. c #B99A77",
"N. c #B3947B",
"B. c #B69778",
"V. c #B8967F",
"C. c #B59A7C",
"Z. c #BA9B7C",
"A. c #9D8E80",
"S. c #A69487",
"D. c #AC9381",
"F. c #AE9883",
"G. c #AF9989",
"H. c #B39681",
"J. c #BB9682",
"K. c #B49880",
"L. c #B49A83",
"P. c #B49C83",
"I. c #BB9D83",
"U. c #B49E8A",
"Y. c #B89D8A",
"T. c #B19D94",
"R. c #BDA184",
"E. c #B5A18B",
"W. c #BCA28B",
"Q. c #B3A496",
"!. c #BBA793",
"~. c #BFA692",
"^. c #BFA893",
"/. c #B7A29A",
"(. c #BBAA99",
"). c #C19D86",
"_. c #C1A285",
"`. c #C3A58B",
"'. c #C4AA8C",
"]. c #C9AA8E",
"[. c #C0A791",
"{. c #C3AA92",
"}. c #C9AD94",
"|. c #C4AB9A",
" X c #C9AF98",
".X c #CCB196",
"XX c #CDB39A",
"oX c #D2B79E",
/* pixels */
"o . O & > > % % % - - 5 4 - & & & > & , = O O $ & O @ & O @     o O O O O O @ & @ & & 7 , = & = O & # & = & O > & & O , , # # @ ",
"O O O & & & = & % & > - - & & # 2 , - & O @ @ % # = = & & = O & = > O O & - 2 > > 4 2 4 4 , > 4 4 3 2 2 , , , 2 7 , # > 7 , = = ",
"= & # = = & & - - & = , , = & = > & & O # O & O # & O & % & O O % > - O X = , & - - 4 - 1 - < % , = , 2 , 4 4 7 7 7 , 7 7 < , , ",
"s k k z v b k S x n n Z Y S f 0 - , j @.@.@.@.g.a.,.c.g.0.q.2.} , 5 5 W _ &.O.i.,.@./ d.d.<.c.s.W j 4 7 A S S H W b a a k b b N ",
"$.&.Q _ @.<.<.a.<.@._ i.j.a.a.b % , &.e.K.c.2.r.l.7.e.7.B.r.c.E.& * | j._ -.#.N.:.K R w.N.-.7.z.K.P.* 2 T x q Z W 4.@.} F.!.2.&.",
"a._.}.Z.R.#.e.#.#.( XX_.`._.I.{.1 -  X}.I.K.D.C.I.Z.H.R.R._.`.P.1 - %.K.I.Z.Z.w.] P l.e.Z.}.'._.K.I.4 7 2.W. XXXN.,.S n / 0.`.N.",
"j.I.W.w.7._ &.&.O._ c.W.`.}. XU.& - P.c.f.H.T.N.N.7.E.K.N.N.z.Y.* , b s.s.#.e.q.q.&.&.e.K. XW.`.~.5.- 2 G.W.^.{.H.} D g W @.W.s.",
"@./ _ _ _ &.^ 5 r y K O.+.@.W 4 4 7 l / S { F _ /.o.2.T O.R P.F , > 7 N Y Y Y W / T x / @.@.@.2.W l - < k S S @.,.W g Z G N | Y ",
"& O # * = & @ O O $ = - @ O o O & & & = % O O @ O O & & . & o O O # = = O & & & o O % > & % @ & & - - > - O & & & & # , & & & & ",
"- @ & * , = > , * = & = = & = & * - - = = & # - , = , & & & # o @ # 2 < = & * > - , % & , 4 , 2 , < > < 7 > @ > , , & , - > > > ",
"4 * - - 4 - 4 4 5 1 5 5 4 ; 1 1 7 4 , 1 4 , * 4 4 7 4 4 5 0 - 4 1 5 4 f 0 5 1 1 7 0 0 5 5 f a 4 1 8 4 1 f 0 a 5 0 4 - 4 7 5 a 8 ",
"e k a g g N 5 1 1 b W S n n S k b e 0 g b N 0 4 - p k b Y E l g y g b S S D G l - 0 e W Y W b S Z S T A Z S S n k a - , 7 b N Z ",
"@.a.2.+.&.=.1 - k H.c.#.#.w.e.c.a.&.T +.b.i.D.4 - } D.#.Q +.T / _ &.' a.C.e.a.4.* 5 S c.r.#.p.b g e @.K.#.] e.K.,.b 4 , 0 ,.s.#.",
"Y / #.].).W * - e O.J.].Z.9.M.n.n.B.f._.u._.I.1 - &.f._.oXoXn.z.] 7.( n.'.'.W.W.l e Y c.N.H.R n | } K r.m.Z.B.Z.B.:./ < N h.@.p.",
"W #.K.`.V.$.4 > 4 S p.n.I.y.Z.n.r.B.`..XI.`.W.4 - 2.b.I.r.f.N.I.' ' :.{.`.].{.W.h 4 n @.l.,.R / @.~ _ f.M.B.M.r.r.q./ , | Y g &.",
"0 s b w v 7 % & * 1 B n n S n Y R T T / K T | * - a x g b l g e N k g v k e n S 5 5 4 e e x z b g N | O.T Q Q O.&.^ g & - p - 5 ",
"5 1 8 0 5 & = , 0 1 1 5 1 - * 5 5 5 8 0 4 , - * > 0 5 4 * - 4 * * 4 4 7 4 1 5 5 1 4 1 5 4 5 5 8 4 1 4 0 0 e 0 5 5 5 1 , , 7 7 7 ",
"@ o o o O o O & = o O & O O O & & & O O @ o O O # % O @ O @ & & & & = , = % % > > % & < = = & 2 , = = = = > = = = + O @ & O & - ",
"= = # & & @ O = , & O & - & & < , = O O @ > > , < < > 4 > & , & > > > 7 7 4 & - = 4 < 4 , - = , 4 , > - , - , , & & @ O = = , = ",
"1 5 4 5 9 7 1 e 8 e e e 5 1 4 0 p 8 ; 4 1 4 8 5 5 0 0 e 0 4 0 7 0 4 - 5 6 5 a 0 * * , 7 0 e 1 5 - 8 7 4 4 ; 1 1 1 - * * 1 0 5 4 ",
"x n S A 0 k e Q _ _ 7.#.) c.h.S _ x q.] N.i.b #.Y i.&._ ,.g./ r R Q a.0.e.#.R @.l k ,.Y K c R Y.&.X.- 2 @.a.@.&.#.s.c.g.K.W.H.i.",
"@.Q S W W x v &.w.R ! U U e.Z Z R c f.B.R.0.n / T c.f.B.oX'.0._ x n i.I.`.w._ O.g n 2.#.#.I.`.{./ k & b h.a.#.f.w.#.#.w.f.f.w.N.",
"Y.D.B | 1.n / c.Z.n.n.B.B.0.r W 2.a._.`.{.S v _ | :.f.B.'.'.c.Q n T %.I.Z.R.W.1.t l 2.( -.oXoXc.x 6 & 1.D.a.C.R.] #.L ) w.`.w.#.",
"g e 8 0 5 4 * 5 K.a.f.z.0.2.b a W z n x f H a _ S { a.&.T / 1.W S S Q | W { W M f p e x @./ / b a 0 1 5 } W S C W Z | Q h.@.T W ",
"4 p i < 4 7 - , W | Z V Z b e 4 a k a e 5 8 p g g g b b g f b k 8 0 l k g 0 4 e f 5 g N S S D 1 k p , 5 e 4 0 f f 0 0 5 E e S S ",
"& o O O = & @ = & @ = , & O & = > , , - - & > > - 4 4 - = > < , , - , 2 & - & - & > , , 4 = & & * , = , % O & > & & O & # = & - ",
"> & @ - = & = 2 = & - 5 , @ & , 4 , > , = , , 7 0 4 , - - < 7 , , 4 2 , = , 4 , 2 2 , 2 , < - > @ = > & - & O - > - & - & * = , ",
"> > @ = < & & > = = - - = % & - , < = , 4 , - , 4 7 & = & = 2 , , = < , > 7 > > , 2 = - > = 4 = $ & O - , > - = & > & = & O o - ",
"2.@./ %.A 8 > , j b @.,.i.H 0 t T W O.R Q b k 7 5 k S r.r.R.r.r.R.C.R.0.$.0 l A W T @./ R x.&./ R _ ~ e.D.E 8 > , j 1.v.N.f.`.{.",
"&.a.e.c.| 4 = = e Y {.P.q.| e e x x [.I.c 0.G 1 5 Q {.XXW.W.B.) n.Z.XX#.@.D D C O.<.g.( :.K.R _ R I C._.<.W 7 < 5 / P.I.n.z.Z.I.",
"K 0.C.g.@.- = - v 2.c.n.n.Q Q T c _ '.`.N./ W 4 - &./ #._ Q _ #.:.-.7.q./ } / T &.j.<.&.~ @.O._ L N.'.I.&.* @ & * a.c.:.#.K ' #.",
",.@.R / | = = & k 2.@.q.a.Y n x R h.<._ &.} b , , | T Q ,.&.@.| / / u ~ W l S b S n n Y W ^ / Q Q q.R R } a - , , M Z K / T @.| ",
"1 4 7 7 4 - & > - 4 0 0 5 * - 5 5 4 0 8 4 - 4 > - a p g a 8 f 1 7 7 7 0 7 i 5 8 p 0 7 0 f 8 f k f a j a p 8 > 4 4 < 4 4 1 - 1 4 ",
", , < - = & : 7 < & & , , , 2 7 5 8 7 7 2 , - 4 < 4 7 0 7 4 , > = = , - , < 8 4 4 2 7 4 - - 4 0 4 , 2 4 4 < = , - < < 7 , & = < ",
"= , > , = = & 4 < > = - - - 2 2 4 2 , , > > - 4 > , 7 5 , > , > - 2 - , & - 4 4 2 < 2 4 - & , 2 , - 4 4 - , < > & O > 2 1 = = > ",
"1 , - - - < 1 1 1 - ; 1 8 - > , 5 8 8 5 4 0 - 4 5 g a 0 5 0 5 4 < 0 4 0 8 g b g f 0 8 a a 8 g g e 0 g b 4 e f a 5 4 5 0 g 5 5 0 ",
"X.z S | } 7 a l S S / / $.e 1 g g Z &.| n G E W x W O.Q c O.A p 7 f b Q ~ N.0.g.W b G Q.%.Q W.R +._ d.g.,.&.&.v.h.n z T b.i.&.K.",
"N.`..X0.&.B S T W.C.J.r.0.W W g K K.] f.e./ | { Y T c J +.#.B B g z a._.I.) 8.r.&.O.>.W / K r.8.] ) ) ] r.] [ t.7.+.Q R I ` ( #.",
"J.].].#._ n S z N.f.{.`.N.&.Q r c g.`..Xf.O.E N h / +.;.J.;.Q S e r p.`.`.[ 8.k._ T S W / Q r.r.B.k.] ] C.Z.r.w.w./ Z x R #.k.R ",
"K._.XXW._ T S @.p.J.{.'.W.h.z z n p.{.'.R.,.S S Y h.H.N.N.N.O.n 5 q &.I.R.-.7.f./ x g W ,.^.f.B.B.B.e.] Z.'.`.k.N.&.y q S Q #.Y ",
"5 f n l a , 8 a a b k b b 8 0 e 0 S x n b b S Z b v g x g g N f < 5 f g h b k l 5 5 8 k 0 f C g g k f k S f f k f 7 7 0 1 , p 8 ",
"- - 1 - - > & 4 , , 1 1 4 - , 5 0 1 f f 0 e 4 2 4 8 - a 5 1 0 p > = 1 8 7 0 0 0 > = = - 4 4 0 4 1 & , 4 4 , & 4 4 , 2 2 - O = & ",
"> & > & & > & = & = = , < > O - , 4 = = - & = > = , & > = = - , & & & = & > - < , = & - % = , , < # @ & , - & & = > = > = % & = ",
"& - @ % & = = = @ % & & , = & < - 4 , - % & @ & , , , - - , , # & - & = = , - , 7 4 & - , & 4 , , , > = , - = = , , = , > = , - ",
"E E H S A N l D G A N b b f 7 f b S 0 D ,.%..., M A k f j m 7 4 l g W W g A k l j 8 l l H | W | H e / 2.@.| | } W 1 m ..S h b b ",
"@.&.,.#.@.z Z ~ e.a._ H.K.&.h o.%.g g T ~.Q e 0 l 2.|.s.F k 0 f Z w.B.M.] &.2.W 0 A W @.x c.c.Y x x ,.z.] a.c.W 7 5 l S b.W.z &.",
"R +.N._ Y r n Z w.k.J..X}.W 5 N O.b 4 4 Q z e 1 f Q i.%.k f 4 0 _ C.].M.-.f.&.k 5 0 k S / W.N.Y x ~ q.e.Y R T g , - f W 0.+.u n ",
"o.} | S S k o.W T Q Q W W N , 4 0 k 4 , e 7 d 7 a f e N m j M 8 b Y ,.W N t t f i 7 f b b Z x W g 8 l G f 0 5 4 & = f k S W H f ",
"0 5 4 0 4 - - 1 * 1 5 5 5 - & , , , , , 1 < 4 8 4 ; - 1 - 4 4 - , 5 0 1 - - 9 - , < - 5 4 4 e p , - * 4 4 - , , & 7 = 7 e f 0 4 ",
", - , , = = = > = = & - , , & , 4 - > 2 - & - 5 4 O % - & 2 < = = - O = 4 > < > = > = , 4 > , 4 = & - & < , & , = 2 > , , , < 4 ",
"< > > = 4 , & - , , = = , - > = , 4 > 3 , = - 0 = = & = , = > & > = & = > , , < = = = , 1 , - 2 4 & & & & = = 2 , = = = & = < < ",
"= * & & 1 & & - - , & & * - , - 4 - 2 4 7 - 4 4 = , - * 4 5 = & > & & & , 4 7 , 4 , - 4 7 0 8 4 0 5 , 4 = & 4 4 , 4 , , 4 4 7 8 ",
"/ } | / n @.2.h.0 5 S T  .<.Q 2.l 5 a S @.Q / 5 4 f 1.h.e.#.,.a.2.%.g S W <.<.,.W a e C | h.d.#.@.c.q.a.,./ _ 4.h.~ n f (.%.S O.",
"Z ~ @.@.R ,.<.h.5 e s T i.a.P F.} l b E e.N.q.W e k A S n.r.B.Z.q.j./ T ,.I.C.z.=.g g W C R 0.] ( r.r.C.e.e.z.,.K.,.%.^ x.@.r R ",
"K &.a.' #.I.p.O.5 b g c g.` f.b.$.k S Z r.f.e.$.b a v z n.n.n.Z.r.,.K a.I.`.R.N.Q k l W A u ' ] B.Z.R.Z.r.r.C.r.r.2.| h S | V _ ",
"&.2.@.Q R i.j.2.; 5 z S 1.+.+.s.} 8 N G _ Q Q W 4 4 b G ,.@.T / j.p.T q.c.#.#.s.} f 0 7 a / <.#.g.b.,.' _ :.q.a.a. .l 5 | %.@./ ",
"H b l S S W { X.4 a s e N S S W b 5 0 g S S G g 7 f l A b Z A b W W b D D S Y E k l 4 7 g W Y / | | ^ ^ T T S } / A a 5 l F f l ",
"# & & = , & & , , , = = = - = , , > = - , = & , < > = , , = > = = & & & @ & > > > < - = 1 - 4 & & > , & < > = 2 , > # & , = , , ",
"& # & & - & # - = = & = - - , , > = & & = = > > & , & , = , = > & - & & & & % > > = # & , , & & & & & & = & & 3 4 > & = = = = = ",
"& & @ O & > & @ & > = # = > & = & & & & = = , & & = & # & - = @ @ * & O # & O O = & & & - , - & = - > > = , = < 2 , # & & & = & ",
"/ / Q s a k g W e b Q @.O.e e g n Z T | W H A 0 p S &.2.W { n ^ i.K.q./ @.S N 0 a ..| %.Q 5 8 f S / a.@.@.&.} } E 0 f A %.S E X.",
":.:._ Z g n T s.g y ,.g.b.5 g y R a.,.,.2.%.%.4 a O.c.C.#.#./ | q.`.Z.f.f.@.@.S 0 } q.P.,.8 1 g T i.I.z.R / _ / %.5 5 S D.O.Z &.",
"_ ,.R K.#.c.&.#.r x &.T R n S a.@./ @.a.E.%.W } A./ <.c.f.c.| e g @.a.#.e.K.Y.U.* A Y.h./ 0 N l f | 0.z.:.<.i.&.D S 1.P.s.2.k | ",
"8 l e Z k H k k a 8 g b b f k 1.N g W S S k b a j g { | 2.2.A a 4 } 2.&.2.,.2.S.5 N } o.H 8 j 7 5 G  .| %.^ W S 5 ..*.X.H H 0 F "
};
