/* XPM */
static char *_b5817a67b21486be28452e33ec58128t0I1QzSWoaiEXSZk[] = {
/* columns rows colors chars-per-pixel */
"64 64 131 2 ",
"   c #1E1F25",
".  c #201F27",
"X  c #252527",
"o  c #26252B",
"O  c #29262C",
"+  c #26292B",
"@  c #2B2B2E",
"#  c #312E2E",
"$  c #2C302E",
"%  c #32312F",
"&  c #292732",
"*  c #272932",
"=  c #2E2D32",
"-  c #312F33",
";  c #2F3032",
":  c #343335",
">  c #393636",
",  c #363836",
"<  c #3A3936",
"1  c #363539",
"2  c #3A363A",
"3  c #37393B",
"4  c #3C3B3B",
"5  c #423C37",
"6  c #423E3D",
"7  c #3E413E",
"8  c #44423E",
"9  c #4A443E",
"0  c #4A4A3F",
"q  c #3E3E42",
"w  c #423F41",
"e  c #4A3F41",
"r  c #3E4142",
"t  c #3F434A",
"y  c #454342",
"u  c #4B4644",
"i  c #464946",
"p  c #4B4846",
"a  c #4B4A47",
"s  c #4E4844",
"d  c #4C4A44",
"f  c #4D4846",
"g  c #4C4B47",
"h  c #4E4D47",
"j  c #454549",
"k  c #444748",
"l  c #47474B",
"z  c #4A4649",
"x  c #46484A",
"c  c #4B4A48",
"v  c #4D4848",
"b  c #4C4B4A",
"n  c #4E4D4B",
"m  c #4A4A4E",
"M  c #4E4C4C",
"N  c #514744",
"B  c #514D42",
"V  c #524946",
"C  c #534B47",
"Z  c #514C45",
"A  c #5A4F46",
"S  c #5E4F47",
"D  c #504B48",
"F  c #534C48",
"G  c #524F4B",
"H  c #574D4B",
"J  c #554F4B",
"K  c #514E4D",
"L  c #594E4A",
"P  c #4F514D",
"I  c #535047",
"U  c #5A5147",
"Y  c #57514B",
"T  c #52524D",
"R  c #52504E",
"E  c #55524C",
"W  c #59524A",
"Q  c #59534D",
"!  c #59554D",
"~  c #5C544C",
"^  c #5B584F",
"/  c #5D584D",
"(  c #454551",
")  c #4B4D52",
"_  c #4E4F52",
"`  c #534F51",
"'  c #4E5252",
"]  c #555450",
"[  c #555453",
"{  c #535555",
"}  c #5B5553",
"|  c #5E5652",
" . c #5E5754",
".. c #5C5756",
"X. c #555956",
"o. c #5D5A53",
"O. c #545659",
"+. c #565A5A",
"@. c #5C5C5A",
"#. c #5E5D5A",
"$. c #61554E",
"%. c #63594F",
"&. c #64594D",
"*. c #685A4F",
"=. c #605650",
"-. c #625651",
";. c #675B51",
":. c #625854",
">. c #635B54",
",. c #655D56",
"<. c #6A5C54",
"1. c #625D5A",
"2. c #615F5D",
"3. c #755E52",
"4. c #656152",
"5. c #6E6057",
"6. c #64635E",
"7. c #6C645A",
"8. c #726457",
"9. c #73645B",
"0. c #78655A",
"q. c #716D5F",
"w. c #7A6B5E",
"e. c #626162",
"r. c #646462",
"t. c #676965",
"y. c #756C64",
"u. c #73746E",
"i. c #7C756C",
"p. c #876E5E",
"a. c #9A7F65",
/* pixels */
"W 6 y 3 8 8 : 1 8 4 y g 6 4 3 - 4 G y 4 : : y e.y g i i Q a.| : H u 3 : g S V 1 < H : : q m g @ y H y y 4 k 6 6 : g u ( y < g V ",
"M G i ; > 6 4 y g y 8 g g p w 3 g g 2 1 : 2 n 2.H 9 4 y ,.W : 1 > & : n 6 :.3 ; 4 , 4 1 4 _ h < 8 g y y @  .G > n u Q y y 4 y Y ",
"2 4 y 4 : : 3 y g 6 4 8 : 4 8 y ~ ! 4 u U 4 4 y > 2 { k u 2 - g ! = u 4 4 4 1 8 4 @ q v Q m 4 8 2 g ;.8 - D %.4 2 u 2 3 2 4 4 p ",
"y & : < @ @ w 8 g  .k y = 4 4 6 B n u 8 u ; 1 8 % y y 3 4 w > V G 8 4 - 1 6 y @.1 X 3 u 8 w 8 4 3 8 6 4 y N 2 y g 2 3 y 6 y 6 4 ",
"8 8 1 1 - : 5./ 6 > R w : q 1 2 < ; 1 y 3 = 4 < > 2 1 : : q V Z R 2 1 1 2 y R [ : = 1 y 3 q G y 2 : - 4 w - G u p u 1 4 : =.y > ",
"H g y = 1 8 $.g 4 1 g V y 2 m 7 3 1 6 @ w : 4 3 > 6 V < @ : V : i 3 1 2 8 2 6 2 1 @ = g u y w.B 3 4 1 7 3 - 5 4 u g 4 = : g Y 4 ",
"H u 4 = , v 9.8 8 2 y G : 1 q ; : 4 < : u 6 4 4 z y 9 1 > S D q @.4 q w : 1 4 p y 1 = 4 y.1.3.% @ 1 3 x 4 : &.Z 4 i y : 3 8 y 5 ",
"6 g y < 8 D u y y 2 6 2 4 4 4 O : +.n 1 2 u y y y y 2 o 4 G v k R i m 1 : 2 3 h p 1 4 ~ ! Q 9 : = y  .y p H 9 2 4 2 6.4 = < Z 2 ",
"@ y y 2 2 y y W g 3 1 2 1 1 8 1 : r 2 6 O : 4 2 6 U y : : y 4 1 1 1 y = 4 > q [ ` : u o.V 6 2 : 3 2 : : 8 8 < 1 2 y v 5 - : Z : ",
"8 u : : 6 g y | y   2 4 : 2 p n 3 = - 9 4 4 : v H > q y 6 u 4 g @ : 2 = = q 4 y 2 : V n : 4 8 p 2 q @ 4 g Z u V 6 4 @ : = 4 : 3 ",
"g y - : > 2 6 N 4 : 4 w 2 4 p n 8 + 1 6 y 1 : G u 4 k 1 y g u 2 3 = 3 1 2 y y 4 u 2 h | : i g y H 4 4 y 2 6 4 2 v - : = @ p : 3 ",
"G : = > 6 Z w g 3 4 4 1 4 8 G V 6 = 2 2 4 2 : y V $.2 : 6 g W : o : i w L R y 4 y 8 o.[ i 8 M Q N u k q - : g y 8 : [ y 8 y 3 2 ",
": : : < 6 2 6 w @ 2 y > u H h u 2 = - 6 3 = q n 9 8 y ; + g Z 3 : @ 4 v g X.n : , y R ! 4 ; 4 u 6 u 4 : q G 6 9 - 4 k Y g : H u ",
"1 g D q 1 9 y 8 3 u Y 8 u 6 : 1 = - 2 i : : 6 L : ;.8 @ : > 6 * X = 4 2 1 i 6 = : 6 ! g 2 @ : 2 > 3 4 1 q @ : B : @ 6 : 4 1 > 2 ",
"H y g v 6 4 8 8 3 3 Q 8 :.R @ : 6 3 u 2 = : 8 y : 6 6 4 = 1 H 4 : u g = q 8 6 : k o.H g 3 ; ; g g 6 : z H # 6 ,.3 o D : 3 y 5 D ",
"V q 1 Q y 1 4 v 6 2 > w y y y y Y g u 4 3 4 y : > 4 2 Y q 1 H y q u 6 1 1 y y q 6.=.Q Q p u 6 6 w 4 y y y : u y : : : 2 2 u 8 =.",
"1 6 4 V 6 1 i V ~ g p g = 4 ) k Z $.4 1 g h u - 8 7.Q w k 1 3 : 4 2 g Y p = : y m u 6 Z 4 6 G 2 y y u w q 1 4 r q X - : u I p 6 ",
"4 4 6 > 6 4 4 4 6 Z 8 : : ! G 4 y y : k 4 8 2.y - :.y 1 3 2 - ; Z < y u 4 3 1 y n : 6 [ 1 : 6 3 6 ! G 4 3 m y q 1 : $.Z ! Z V g ",
"q 6 3 : = 1 1 4 y 2 2 2 < u : : , i 4 q 6 9 z y 3 < 4 1 < - > 7 8 2 6 X : R y y y 9 U G & = 2 6 D 9 2.z 6  .v - > > 2 9.! 8 g y ",
"u 6 1 @ 1 1 y R u.[ 6 4 8 r @ 4 x u : 4 u 3 : > > 8 y y 4 N w 6 6 y 1 = : y 6 p [ R g 4 @ : r y u y  .6 6 g V 6 1 6 w | G H y 4 ",
"8 h u $.y w 1 i G 4 y R < X ; y 6 y 1 2 i q 6 2 3 4 4 y y u 6 1 2 6 2 = : 4 6 y [ G =.4 - p i 2 8 u @ 2 y V 4 : 2 : : > 2 6 y 6 ",
"w 4 y 6 g 4 = y Z : q 4 8 O : g Q 3 : u g 3 N < : 2 1 6 y @ @ 8 4 w 4 = = 4 = 4 p 8 y > : k y : R y @ V } V > = 4 z D > w > 4 : ",
"> = 2 o.Q 1 X , , 1 g 1 2 = = 9 u - : 4 6 4 y > : y 8 1 u = 1 4 y 4 1 3 - : g 6 7 m 1 X 4 4 > y } k 1 8 8 : @ 3 2 D Q y q 4 4 3 ",
"3 : V v @.X & : 4 2 X 3 i 3 = V g : 1 2 : w v ; y y 4 - : y H 2 1 w y 3 O w w 4 k y @ : 4 2 H Y 8 y 3 y ! : G v k z 9 6 g 6 1 : ",
"2 4 y m y @ y @ 1 2 < k 2 1 V G 2 y y 6 : 2 1.6 2 3 y 6 > H 8 4 6 6 O y : 3 : 1 1 O i 0 4 y ;.E 4 1 # g 6 6 7./ q y 2 w G 1 & 1 ",
"> 4 w q M 4 : , 4 < @ 2 X > g G 3 4 4 4 v 8 8 g y 1 y y - q y y V g & w y @ O = : : 4 > H V 6 4 +.y < 6 V V o.1.q 4 : 6 3 X : 1 ",
"2 4 6 4 2 2 @ : 4 8 1 1 1 4 2 u 1 3 p 6 8 g u L 2 : 3 O u 8 p y u g 2 y 4 @ 1 y u 1 3 g y % h u o.y < $.0.8.&.[ k 8 1 m 4 - 1 : ",
"7 = 4 4 2 - - 4 8 B y 2 Q 6 = 1 q : 6 8 w 2 g g 4 = = 1 < g 7 p 4 1 4 1 O   v g G y 1 2 v 1 q 6 2 2 2 :.<.y.^ y q 3 ; q : : 8 u ",
"4 3 z e.y - 3 Q 7 g i 2 u w @ 2 y : 6 4 - o > q - 2 y U 2 6 1 y 8 3 4 4 = = # 1 y k = 3 [ 1 - 9 2 8 n u 4 v 4 1 3 q - 1 @ g 6 4 ",
"y m ' k 4 # 6 : 4 : 1 @ 2 y 6 u y 4 2 6 y = 2 - 3 Z H < 4 y g A 6 : > 2 2 6 @ 8 z o.1 z ! 5 4 3 A 6 Z > : 8 y Z q * : 8 q G > 1 ",
"y [ @.m : > 4 6 < y 4 = 6 u 2 4 1 : u $.: 4 y 6 Z 8 4 4 8 g 2 6 1 : 3 B G w u y i x w 2 # 6 u 4 y 4 4 : 3 6 N ~ u X < p 4 k 4 6 ",
"4 4 i i N <.;.g w y v > u : ; 1 : 6 g V ; 4 y h :.p 8 1 4 y 6 6 1 w = 6 6 z 2 @ 2 - N 8 < y 4 i 6 y 2 1 : > v y u g >.y Q q 7 8 ",
"- 4 y : 6 9.H 3 : q V 8 4 2 4 : 2 6 ,.8 1 2 6 8 3 6 4 : u 2 y u - = 3 6 y u 6 : 2 > 1 : 8 q  .6 g 6 = > 2  .1 4 u p.w.< G 4 1 > ",
"N V g : 4 g q q 4 4 W 8 : 2 v y y g u = 4  .o.8 1 y p 7 8 6 6 m 2 : p 2 u R u 2 6 4 1 1 k R V w > u 3 > 6 X ,  .u ;.8.6 v 2 @ y ",
"9 6 i u 9 D t 4 6 6 6 3 1 y y @ 2 4 @ 1 8 v y 8 n y : : y D w 6 2 : 9 6 3 ' k > 3 : - : Y H 3 2 u k = 3 = 1 u O 4 2 :.4 6 1   - ",
"=.y y 7.8 y O.6 > G y 2 y Q 1 @ 2 i 1 y v > : 1 ' y O @ v < V g g 1 = 3 q y g V - o = y H 2 = 3 y 4 : 6 4 4 : o u g 6 6 Z : o 1 ",
"i.v y i 4 y Y > 1 !  .= 3 V 3 O 4 q 6 2 w = 4 y c 8 @ 3 : 4 u ^ c 1 @ : 4 - 6 u - & 3 8 4 - = 3 - = : 1 w : o = g =.y D W 2   = ",
"@.1 1 4 4 y 6 4 y Z 1 2 1 1 6 : 6 y r 6 u 4 2 y : 1 @ - 8 6 w < k k @ : 4 1 u u = 2 4 : 2 3 : 4 4 - y 8 G - 1 2 9 } G H N y 6 H ",
"6 @ 8 1.H 3 = 1 8 y 2 u W g | = w 8 2 y y 2 1 < : = = 6 :.N Z 4 2 2 : 4 v : 2 g ; : 6 ; 2 y 3 : y 4 = 4 7 : v 1 : :.G 6 @ 6 g w.",
": ; R u g 1 3 u h 2 4  .p N 2 3 2 y n u 7 1 3 G y 1 @ 5 y.Q : : - w V H y @ = 4 = 2 = : = = 4 8 9 4 1 X 1 : 3 @ 4 A R * 1 6 4 u ",
"8 6 g 2 1 4 6 3 6 3 u k u $.1 2 # D y 2 < y 2 > 8 : : 3 ! g , 1 - = > Q k ; 3 8 3 3 : y : 3 g < 8 Q < ; 1 @ 3 & 2 u = = 2 y 8 ~ ",
"=.G $.1 i 8 6 4 2 4 y : 8 g y : 2 <.2 2 p y : < Q g 1 6 > @.M y > @ 2 u q : 8 u 1 4 8 6 8 g v 7 4 z 4 : - o o = u g X > y n y ~ ",
"2 y u y 4 < y g n 2 y n 8 y 2 1 u 4 : H 8 = k m W g : : u o.m 6 8 i y 3 1 : n u 4 i i 3 G Z  .g 1 1 = - = @ = 2 3 2 2 v ! G m 9 ",
"%.u y u 1 : G G ) k 4 P y : > q : u 4 g 4 <  .y [ ! : : 4 4 % u y 3 : 4 : = 6 6 8 8 = 2 0.8.G _ y 4 : 1 e V 4 y = 3 B } 5.x : 9 ",
"%.y 3 2 w 3 1 g c 8 @ u 4 > ;.g 9 v 8 y 4 H 6 : R g = @ 1 1 : g v 2 : 8 L 3 q 2 2 4 o : *.2 : q w > 4 4 ~ H 2 - = y 4 6 ~ 4 = G ",
",.q : : 3 : 3 7 4 > : 8 6 1 H | y y 4 V g u - y g @ : 1 :.4 i p m : < 2 g 3 @ 1 6 y 1 [ 4 = 4 1 V 8 3 y 2   @ o = g 3 - V 4 = G ",
"V _ = = @ : 4 g y 4 w r - : 4 6 4 y 3 y o.4 = G Z 3 = 1 4 u 3 m 4 : 4 @ - y 3 6 g : 4 4 : ;.H 4 8 1 3 4 V - 6 3 w y : : p V u g ",
"v i 3 o : 3 u 9 Z Q H D 2 4 [ 3 i G y > g : 4 2 2 w @ = 6 : 3 i 2 > 1 @ 1 1 @ 4 p 2 V = - *.G 2 : @ M i i > y q y 4 : : u 1 4 2 ",
"y g 8 4 6 8 L 8 q 8 ! 9 : < : % 2 m R 6 2 , 4 : : g y 4 2 ; 4 1 2 4 1 > : X 1 u 1 3 6 - 1 6 > 4 : 2 2 3 y u y ; k v : = 6 3 : 6 ",
"w g u y 1 u =.2 & > : 3 4 3 : 8 4 m u : = w ~ : : 8 R g 1 8 y g y 6 3 X > 3 1 % : 1 | w 1 1 6 | p y q - 4 @.q - y n w u N 9 D E ",
": = 3 w 5 7 2 O w : 3 y r = : i : 3 - X 4 W Q 6 2 g u i @ 6 3 w 6 : = @ w > 1 : : @ H 4 1 > 4 g o.6 - = 8 x 2 - 4 : X 1 u 6 L u ",
"> : = : 2 4 1 : : { } g i 3 2 c - : 3 : 3 W =.p U 7.y y 2 6 4 - 1 : : 4 g y : = : 8 8 @ X H y u 6 = > = q = : 2 6 X + 3 y y 8 6 ",
"4 < V > X = : 6 2 @.Y 6 u 6 8 9 : 1 @ 4 4 6 1 y A ~ 4 4 v y @ = 6 6 y 1 2 > . @ U ! R 1 1 u - 2 3 : : : - : 2 2 H w @ $ k y = 1 ",
"i 2 =.V =.2 3 8 4 g 2 1 2.6 :.V 4 Z 6 : 3 : 2 2 u 2 1 : : > 3 6 n 2 @ 3 y 8 : < g 1.g : = : 1 : 6 6 = : 3 2 4 i n y @ 1 : 3 X : ",
"G U Q q 4 : , 4 2 H y 1 o.U $.1 8 2 p 4 2 2 2 2 6 u 9 : = ; u y y @ : u p 8 3 : : 6 V + ; y 3 @ 4 g 6 < u u } 3 < h 8 2 N 3 = i ",
"9 y k r 2 2 : 4 ` V Z 8 G N @ 6 6 : y y y y y 8 3 1 6 4 u > 8 # 3 @ : : y G @ X w L g : 2 ;.2 1 6 8 u 4 1 y r 4 : 8 u 3 8 1 8 q.",
"6 o 1 ~ y 4 q k Q H %.8 3 > @ i 8 u 6 g Q D 4 = - - 4 Q V u 8 4 u 4 y 6 6 i 6 : @ 6 3 : 6 9 # = 6 9 y : 1 i r y v 6 2 3 1 = G H ",
"@ : Z 4.y : 4 4 D 6 u H : 1 8 y 4 6 : 4 - u : : : 1 v y > y 6 y 9 g y V 6 3 y < L 8 : 1 4 # 1 4 2 p : : y { n 6 2 4 R Z : > K 6 ",
"@ : V I = @ 3 1 2 > u 8 2 : y y 3 = : X : y 2 3 3 = g p 2 1 6 2 y 4 y u - O u 6 :.8 2 3 : @ 6 y : y @ w u k G 6 & w t.r.: > %.8 ",
"= 3 6 G : & 2 w M 6 y [ +.1 1 3 3 1 1 - = y y y k : y G W H v 6 y 6 2 g 1 Z 8 y :.4 @ V 6 y G 1 @ : : u 3 2 g 4 : : R +.r 8 D 4 ",
"V H u g H : w r.G H L [ 7 3 @ [ 1 4 @ 4 O O 4 8 8 p Z 6 2 u u y V 2 8 u 1 Z Z g K 8 4 y > 4 y = = , 4 V y 1 2 y g 2 1 y 8 : 3 3 ",
"$.4 y v u 6 3 2 n 2 u X.4 < y 1 1 6 8 w : : 4 : n u n w : = 4 1 4 1 1 3 = 2 u : i 8 g =.6 p ; = = < < I 8 : 2 8 u - : y 2 @ : D ",
"y 2 2 m @.8 1 q 4 - u 8 8 G 4 4 8 i 4 : - y 8 1 @ 4 R y y y 8 3 2 y = = 1 y = @ 1 < G H 4 x 3 : 3 g 9 g H 1 > W r.Q :.g : : g u ",
"8 y w 4 n 2 3 2 < y y 9 u i 4 w u 6 g : 1 6 < y 4 2 n 8 2 %.9 3 H I 1 = 6 D H g Z 4 2 3 : ' 4 @ 7 9 y y 1 : - ~ 2 i 6 : * : 2 : "
};
